<?xml version="1.0" encoding="UTF-8" standalone="no"?>
<!DOCTYPE svg PUBLIC "-//W3C//DTD SVG 1.1//EN"
 "http://www.w3.org/Graphics/SVG/1.1/DTD/svg11.dtd">
<!-- Generated by graphviz version 2.38.0 (20140413.2041)
 -->
<!-- Title: %3 Pages: 1 -->
<svg width="83pt" height="222pt"
 viewBox="0.00 0.00 82.95 222.45" xmlns="http://www.w3.org/2000/svg" xmlns:xlink="http://www.w3.org/1999/xlink">
<g id="graph0" class="graph" transform="scale(1 1) rotate(0) translate(4 218.451)">
<title>%3</title>
<polygon fill="white" stroke="none" points="-4,4 -4,-218.451 78.9533,-218.451 78.9533,4 -4,4"/>
<!-- A -->
<g id="node1" class="node"><title>A</title>
<polygon fill="lightgray" stroke="black" points="24.9767,-214.451 1.97666,-214.451 1.97666,-196.451 24.9767,-196.451 24.9767,-214.451"/>
<text text-anchor="middle" x="13.4767" y="-203.251" font-family="Times New Roman,serif" font-size="9.00">A</text>
</g>
<!-- A XOR B -->
<g id="node3" class="node"><title>A XOR B</title>
<ellipse fill="lightblue" stroke="black" cx="37.4767" cy="-37.4767" rx="37.4533" ry="37.4533"/>
<text text-anchor="middle" x="37.4767" y="-35.2767" font-family="Times New Roman,serif" font-size="9.00">A XOR B</text>
</g>
<!-- A&#45;&gt;A XOR B -->
<g id="edge1" class="edge"><title>A&#45;&gt;A XOR B</title>
<path fill="none" stroke="red" stroke-width="1.56479" d="M10.8642,-196.347C5.97824,-180.009 -3.44914,-142.024 3.47666,-110.953 5.83689,-100.365 9.91865,-89.4953 14.4527,-79.5007"/>
<polygon fill="red" stroke="red" stroke-width="1.56479" points="17.7329,-80.7547 18.897,-70.224 11.4199,-77.7303 17.7329,-80.7547"/>
</g>
<!-- 2468 -->
<g id="node4" class="node"><title>2468</title>
<ellipse fill="white" stroke="black" cx="37.4767" cy="-135.702" rx="25" ry="25"/>
<text text-anchor="middle" x="37.4767" y="-133.502" font-family="Times New Roman,serif" font-size="9.00">2468</text>
</g>
<!-- A&#45;&gt;2468 -->
<g id="edge4" class="edge"><title>A&#45;&gt;2468</title>
<path fill="none" stroke="red" stroke-width="0.50857" d="M16.324,-196.413C18.7705,-189.507 22.4666,-179.074 26.0882,-168.85"/>
<polygon fill="red" stroke="red" stroke-width="0.50857" points="29.4543,-169.83 29.4944,-159.235 22.856,-167.492 29.4543,-169.83"/>
</g>
<!-- B -->
<g id="node2" class="node"><title>B</title>
<polygon fill="lightgray" stroke="black" points="71.9767,-214.451 48.9767,-214.451 48.9767,-196.451 71.9767,-196.451 71.9767,-214.451"/>
<text text-anchor="middle" x="60.4767" y="-203.251" font-family="Times New Roman,serif" font-size="9.00">B</text>
</g>
<!-- B&#45;&gt;A XOR B -->
<g id="edge5" class="edge"><title>B&#45;&gt;A XOR B</title>
<path fill="none" stroke="green" stroke-width="0.586648" d="M63.2338,-196.354C68.3988,-180.027 78.4107,-142.061 71.4767,-110.953 69.1164,-100.365 65.0347,-89.4953 60.5006,-79.5007"/>
<polygon fill="green" stroke="green" stroke-width="0.586648" points="63.5334,-77.7303 56.0563,-70.224 57.2205,-80.7547 63.5334,-77.7303"/>
</g>
<!-- B&#45;&gt;2468 -->
<g id="edge2" class="edge"><title>B&#45;&gt;2468</title>
<path fill="none" stroke="green" stroke-width="0.585015" d="M57.7479,-196.413C55.4214,-189.56 51.9158,-179.234 48.4707,-169.086"/>
<polygon fill="green" stroke="green" stroke-width="0.585015" points="51.7558,-167.875 45.2268,-159.531 45.1274,-170.125 51.7558,-167.875"/>
</g>
<!-- 2468&#45;&gt;A XOR B -->
<g id="edge3" class="edge"><title>2468&#45;&gt;A XOR B</title>
<path fill="none" stroke="red" stroke-width="2.28548" d="M37.4767,-110.916C37.4767,-103.071 37.4767,-94.0558 37.4767,-85.1086"/>
<polygon fill="red" stroke="red" stroke-width="2.28548" points="40.9768,-85.1019 37.4767,-75.102 33.9768,-85.102 40.9768,-85.1019"/>
</g>
</g>
</svg>
